<?xml version="1.0" standalone="no"?>
<!DOCTYPE svg PUBLIC "-//W3C//DTD SVG 20010904//EN"
 "http://www.w3.org/TR/2001/REC-SVG-20010904/DTD/svg10.dtd">
<svg version="1.0" xmlns="http://www.w3.org/2000/svg"
 width="512.000000pt" height="512.000000pt" viewBox="0 0 512.000000 512.000000"
 preserveAspectRatio="xMidYMid meet">

<g transform="translate(0.000000,512.000000) scale(0.100000,-0.100000)"
fill="#000000" stroke="none">
<path d="M345 4368 c-3 -7 -4 -652 -3 -1433 l3 -1420 2215 0 2215 0 0 1430 0
1430 -2213 3 c-1765 2 -2214 0 -2217 -10z m1361 -872 c29 -7 75 -26 104 -42
55 -30 153 -129 147 -148 -2 -6 -46 -41 -98 -78 l-93 -68 -24 30 c-77 98 -226
115 -320 34 -121 -103 -104 -345 30 -427 88 -54 226 -31 280 46 12 18 23 34
24 36 2 2 200 -113 212 -124 8 -7 -29 -63 -65 -99 -45 -46 -154 -101 -231
-117 -31 -6 -97 -9 -148 -7 -81 3 -100 8 -167 41 -176 87 -287 264 -287 458 0
211 135 395 340 460 68 22 223 25 296 5z m888 -1 c143 -37 235 -155 244 -310
5 -101 -19 -172 -84 -243 -24 -28 -44 -52 -44 -55 0 -3 45 -83 100 -179 l100
-173 -148 -3 c-128 -2 -148 0 -159 14 -7 9 -47 77 -88 151 l-76 133 -49 0 -49
0 -3 -147 -3 -148 -132 -3 -133 -3 0 491 0 490 233 0 c175 0 247 -4 291 -15z
m797 -210 c56 -124 106 -222 110 -218 5 5 53 105 107 223 l100 215 146 3 146
3 0 -491 0 -491 -132 3 -133 3 -5 248 -5 249 -76 -169 -76 -168 -74 -3 -75 -3
-79 178 -80 178 -3 -257 -2 -258 -130 0 -130 0 0 490 0 490 144 0 143 0 104
-225z"/>
<path d="M2340 3176 l0 -106 94 0 c90 0 96 1 115 26 31 39 29 114 -3 151 -23
26 -30 28 -115 31 l-91 4 0 -106z"/>
<path d="M0 970 l0 -230 2560 0 2560 0 0 230 0 230 -2560 0 -2560 0 0 -230z"/>
</g>
</svg>
